<?xml version="1.0" encoding="iso-8859-1"?>
<!-- Generator: Adobe Illustrator 19.0.0, SVG Export Plug-In . SVG Version: 6.00 Build 0)  -->
<svg version="1.1" id="Layer_1" xmlns="http://www.w3.org/2000/svg" xmlns:xlink="http://www.w3.org/1999/xlink" x="0px" y="0px"
	 viewBox="0 0 501.999 501.999" style="enable-background:new 0 0 501.999 501.999;" xml:space="preserve">
<g>
	<path style="fill:#C79562;" d="M146.894,419.913c27.783,8.231,56.941,10.77,85.729,7.467l151.139-17.344
		c8.956-1.425,18.081-1.421,27.036,0.012l47.257,7.561c15.875,2.538,31.402-8.27,33.943-24.147v-40.84
		c0-14.86-10.7-25.878-27.138-29.113l-70.498-10.088c-10.391-0.586-20.81-0.457-31.184,0.384l-152.449,19.45
		c-16.055,0.86-28.373,14.573-27.513,30.628c0.153,2.862,0.718,5.603,1.628,8.174L47.689,329.801
		c-15.366-4.733-31.66,3.884-36.394,19.25s3.884,31.659,19.25,36.394L146.894,419.913z"/>
	<path style="fill:#FF2E3D;" d="M300.997,73.2c0,0-12.663,69.232-28.284,84.853s-40.948,15.621-56.569,0s-15.621-40.948,0-56.569
		S300.997,73.2,300.997,73.2z"/>
	<path style="fill:#FF2E3D;" d="M64.997,158.784c0,0,69.49-48,96-48s48,21.49,48,48s-21.49,48-48,48S64.997,158.784,64.997,158.784z
		"/>
	<g>
		<g>
			<path style="fill:#FF2E3D;" d="M183.215,363.883c-0.86-16.056,11.458-29.768,27.513-30.628l116.685-14.887
				c-4.975-17.646-21.179-30.584-40.417-30.584c-1.578,0-3.132,0.095-4.665,0.264c-5.969-15.926-21.325-27.264-39.335-27.264
				c-14.401,0-27.105,7.252-34.672,18.299c-7.473-11.606-20.498-19.299-35.328-19.299c-19.129,0-35.26,12.793-40.332,30.287
				c-4.286-1.475-8.881-2.287-13.668-2.287c-23.196,0-42,18.804-42,42c0,2.98,0.315,6.119,0.905,9.326l106.941,32.948
				C183.933,369.486,183.368,366.745,183.215,363.883z"/>
			<g>
				<path d="M466.79,313.697c-0.17-0.034-0.342-0.063-0.514-0.088l-70.498-10.088c-0.284-0.041-0.568-0.069-0.854-0.085
					c-10.812-0.609-21.764-0.474-32.555,0.401c-0.152,0.012-0.305,0.028-0.457,0.048l-27.967,3.568
					c-8.277-17.347-25.773-29.035-45.341-29.645c-9.028-16.417-26.539-27.025-45.606-27.025c-8.099,0-15.947,1.889-23,5.371v-82.773
					c7.563,4.233,15.994,6.363,24.432,6.363c12.804,0,25.607-4.874,35.355-14.621c16.966-16.967,28.842-78.052,31.05-90.125
					c0.591-3.231-0.442-6.547-2.766-8.871c-2.323-2.323-5.64-3.356-8.87-2.766c-12.073,2.208-73.158,14.083-90.125,31.05
					c-5.554,5.555-9.521,12.103-11.91,19.077c-9.925-7.941-22.496-12.706-36.166-12.706c-28.796,0-94.309,44.678-101.684,49.772
					c-2.703,1.867-4.316,4.943-4.316,8.228s1.613,6.361,4.316,8.228c7.375,5.094,72.888,49.772,101.684,49.772
					c15.002,0,28.692-5.726,39-15.107v55.66c-8.002-4.869-17.287-7.554-27-7.554c-19.745,0-37.675,11.368-46.404,28.557
					c-2.508-0.37-5.044-0.557-7.596-0.557c-27.177,0-49.538,20.962-51.798,47.564l-16.568-5.104
					c-20.607-6.344-42.544,5.254-48.894,25.864s5.253,42.546,25.864,48.897c0.034,0.011,0.069,0.021,0.104,0.031l116.348,34.468
					c20.898,6.191,42.278,9.3,63.839,9.3c8.602,0,17.233-0.495,25.871-1.486l151.139-17.344c0.145-0.016,0.288-0.036,0.432-0.059
					c7.926-1.261,15.962-1.257,23.884,0.011l47.259,7.561c2.142,0.342,4.268,0.508,6.369,0.508
					c19.112-0.001,35.95-13.72,39.026-32.95c0.084-0.522,0.126-1.051,0.126-1.58v-40.84
					C501.997,333.185,488.178,317.906,466.79,313.697z M223.216,108.555c7.723-7.723,38.914-16.843,64.995-22.569
					c-5.727,26.081-14.846,57.271-22.569,64.995c-9.218,9.218-22.989,11.166-34.138,5.855l12.925-12.925
					c3.905-3.905,3.905-10.237,0-14.143c-3.906-3.905-10.236-3.905-14.143,0l-12.925,12.925
					C212.05,131.545,213.998,117.773,223.216,108.555z M160.997,196.784c-14.582,0-51.453-20.801-77.998-38.001
					c26.538-17.199,63.403-37.999,77.998-37.999c17.492,0,32.253,11.884,36.655,28h-24.655c-5.522,0-10,4.477-10,10s4.478,10,10,10
					h24.655C193.25,184.899,178.489,196.784,160.997,196.784z M87.039,331.461c-0.028-0.57-0.042-1.129-0.042-1.677
					c0-17.645,14.355-32,32-32c3.55,0,7.054,0.586,10.414,1.743c2.588,0.892,5.429,0.682,7.859-0.579
					c2.43-1.261,4.236-3.462,4.999-6.092c3.938-13.584,16.574-23.072,30.728-23.072c10.924,0,20.987,5.5,26.921,14.713
					c1.813,2.816,4.916,4.537,8.266,4.585c3.356,0.063,6.5-1.585,8.392-4.348c5.983-8.735,15.86-13.95,26.422-13.95
					c13.27,0,25.314,8.348,29.971,20.773c1.606,4.286,5.934,6.934,10.463,6.43c1.222-0.135,2.422-0.204,3.566-0.204
					c10.079,0,19.358,4.784,25.3,12.432l-102.497,13.077c-1.927,0.122-3.825,0.382-5.683,0.775
					c-8.047,1.7-15.328,5.886-20.93,12.121c-4.856,5.406-8.046,11.902-9.349,18.867c-0.186,0.995-0.334,2-0.443,3.012
					L87.039,331.461z M481.997,392.579c-1.988,9.908-12.065,16.8-22.362,15.156l-47.258-7.561
					c-9.942-1.59-20.022-1.607-29.965-0.048l-150.929,17.32c-27.604,3.168-55.108,0.772-81.749-7.12L33.445,375.874
					c-10.043-3.122-15.691-13.823-12.594-23.878c3.103-10.07,13.818-15.739,23.893-12.638l133.085,41.003
					c6.634,12.243,19.58,20.492,34.373,20.492c0.701,0,1.407-0.019,2.116-0.057c0.243-0.013,0.486-0.035,0.729-0.066l61.136-7.774
					c5.479-0.696,9.355-5.703,8.658-11.182c-0.696-5.479-5.704-9.359-11.182-8.658l-60.736,7.724
					c-10.281,0.374-18.882-7.406-19.723-17.514c-0.266-5.089,1.462-9.979,4.867-13.771c3.412-3.798,8.098-6.04,13.196-6.313
					c0.244-0.013,0.487-0.035,0.73-0.066l152.219-19.42c9.669-0.775,19.475-0.899,29.163-0.373l69.793,9.987
					c11.795,2.399,18.828,9.583,18.828,19.253v39.956H481.997z"/>
				<path d="M314.417,367.933l-13.586,1.728c-5.479,0.696-9.355,5.703-8.658,11.181c0.642,5.051,4.946,8.74,9.907,8.74
					c0.421,0,0.846-0.026,1.274-0.081l13.586-1.728c5.479-0.696,9.355-5.703,8.658-11.181
					C324.902,371.112,319.894,367.232,314.417,367.933z"/>
				<path d="M139.997,148.784h-8c-5.522,0-10,4.477-10,10s4.478,10,10,10h8c5.522,0,10-4.477,10-10S145.52,148.784,139.997,148.784z
					"/>
			</g>
		</g>
	</g>
</g>
<g>
</g>
<g>
</g>
<g>
</g>
<g>
</g>
<g>
</g>
<g>
</g>
<g>
</g>
<g>
</g>
<g>
</g>
<g>
</g>
<g>
</g>
<g>
</g>
<g>
</g>
<g>
</g>
<g>
</g>
</svg>
